<!-- icon666.com - MILLIONS vector ICONS FREE --><svg id="Non_Profit" viewBox="0 0 64 64" xmlns="http://www.w3.org/2000/svg"><g><path d="m28.1 20.13c.008 1.307 1.992 1.307 2 0 0-2.39-2.22-4.38-5.1-4.68.049-.781.023-1.77-1-1.8-1.05.031-1.043 1.062-1 1.85-6.158 1.009-6.208 8.272 0 9.26v5.51c-1.75-.26-3.1-1.38-3.1-2.67-.008-1.306-1.992-1.307-2 0 0 2.39 2.22 4.38 5.1 4.68-.053.776-.007 1.741 1 1.77 1.034-.03 1.047-1.036 1-1.82 6.163-1.024 6.196-8.219 0-9.26v-5.51c1.75.26 3.1 1.38 3.1 2.67zm-5.1 2.6c-3.536-.78-3.52-4.399 0-5.19zm4.69 4.87c0 1.18-1.15 2.22-2.69 2.59v-5.18c1.55.36 2.69 1.41 2.69 2.59z" fill="#9ad0ec" style="fill: rgb(74, 20, 140);"></path><g fill="#1572a1"><path d="m27.69 27.6c0 1.18-1.15 2.22-2.69 2.59v-5.18c1.55.36 2.69 1.41 2.69 2.59z" fill="#1572a1" style="fill: rgb(233, 30, 99);"></path><path d="m23 17.54v5.19c-3.536-.78-3.52-4.399 0-5.19z" fill="#1572a1" style="fill: rgb(233, 30, 99);"></path><path d="m58.56 50.28c-.1.06-11.918 8.652-12.02 8.69-1.962 1.362-4.72 1.366-6.66-.06 0 0-11.93-8.63-11.93-8.63-2.493-1.691-1.052-5.735 1.93-5.61h2.6v-2.86c14.63-6.787 15.119-27.761 1.11-35.35h13.02c4.09 0 7.42 3.19 7.42 7.11v31.1h2.6c2.99-.125 4.43 3.911 1.93 5.61z" fill="#1572a1" style="fill: rgb(233, 30, 99);"></path></g><path d="m36.53 8.46c-.92-.75-1.89-1.42-2.94-2h-.02c-8.645-4.997-20.625-2.065-26.03 6.3-.01 0-.01.01-.01.01-11.196 16.594 6.911 37.611 24.95 29.04 13.171-6.04 15.276-24.478 4.05-33.35zm-12.53 31.01c-15.23.034-21.31-19.943-8.9-28.42 6.922-5.216 18.147-2.716 22.29 4.79 6.249 9.924-1.362 23.834-13.39 23.63z" fill="#9ad0ec" style="fill: rgb(74, 20, 140);"></path><path d="m37.39 15.84c-4.142-7.504-15.369-10.008-22.29-4.79-12.408 8.475-6.332 28.456 8.9 28.42 12.027.203 19.64-13.704 13.39-23.63zm-8.29 5.29c-.55 0-1-.45-1-1 0-1.29-1.35-2.41-3.1-2.67v5.51c6.199 1.042 6.16 8.238 0 9.26.047.784.034 1.79-1 1.82-1.006-.029-1.053-.994-1-1.77-2.88-.3-5.1-2.29-5.1-4.68.009-1.307 1.991-1.307 2 0 0 1.29 1.35 2.41 3.1 2.67v-5.51c-6.211-.99-6.155-8.252 0-9.26-.043-.789-.05-1.819 1-1.85 1.023.03 1.049 1.019 1 1.8 2.88.3 5.1 2.29 5.1 4.68 0 .55-.45 1-1 1z" fill="#1572a1" style="fill: rgb(233, 30, 99);"></path><path d="m46.26 58.99c-1.2 0-2.39-.36-3.38-1.08l-11.93-8.63c-1.539-1.06-1.711-3.308-.437-4.61-3.287-.483-5.331 3.543-2.563 5.61 0 0 11.93 8.63 11.93 8.63 1.951 1.42 4.678 1.438 6.663.059-.095.005-.188.021-.283.021z" fill="#0b6284"></path><path d="m33.84 41.09c-18.166 10.27-37.865-10.916-26.31-28.32 0 0 0-.01.01-.01 2.127-3.145 5.167-5.676 8.66-7.16-21.282 12.838-5.593 44.725 17.64 35.49z" fill="#69acc9" style="fill: rgb(0, 123, 136);"></path></g><path d="m59.71 46.85c-3.07-1.56-5.53.63-7.77-.98-2.94-2.1-.06-6.81-3.07-10.98-2.823-3.815-6.82-1.939-9.53-5.53-3.366-3.986.23-8.559-2.98-12.68-3.54-4.56-10.66-3.01-11.4-6.47-.43-2.002 1.532-4.335 1.43-6.07 2.58.31 5 1.12 7.18 2.32.003-.01 13.031.007 13.04 0 4.09 0 7.42 3.19 7.42 7.11v31.1c2.123-.018 4.9-.364 5.68 2.18z" fill="#fff" opacity=".19" style="fill: rgb(219, 20, 60);"></path></svg>