<svg style="width:100%;" id="Layer_1" viewBox="0 0 512 512" xmlns="http://www.w3.org/2000/svg" data-name="Layer 1"><path d="m256 0c-141.159 0-256 114.841-256 256s114.841 256 256 256 256-114.841 256-256-114.841-256-256-256zm0 480c-123.514 0-224-100.486-224-224s100.486-224 224-224 224 100.486 224 224-100.486 224-224 224zm152.182-224a16 16 0 0 1 -16 16h-233.738l53.824 53.825a16 16 0 1 1 -22.628 22.627l-81.14-81.139a16 16 0 0 1 0-22.626l81.137-81.138a16 16 0 0 1 22.627 22.627l-53.82 53.824h233.738a16 16 0 0 1 16 16z" fill="rgb(211,211,211)"></path></svg>