<svg id="Profits" viewBox="0 0 64 64" xmlns="http://www.w3.org/2000/svg"><g><path d="m43.98 39.07c-.2-5.22-2.42-9.93-5.91-13.36-.78-.77-1.62-1.48-2.52-2.11-.3-.21-.61-.42-.92-.61-.64-.41-1.31-.78-2-1.1-2.57-1.22-5.45-1.91-8.49-1.91-.62 0-1.23.03-1.84.09-2.07.19-4.06.7-5.89 1.48-.28.12-.56.25-.84.38s-.55.27-.82.42c-.41.22-.8.45-1.19.7-.39.24-.76.5-1.13.77-.24.18-.49.36-.72.55-1.11.89-2.11 1.89-3 3-.08.09-.15.18-.23.28-.09.11-.17.22-.25.33-.19.25-.37.5-.54.76-.01 0-.01.01-.01.01-.17.26-.34.52-.5.79-.15.25-.3.5-.44.76-.48.87-.9 1.78-1.24 2.72-.09.24-.18.49-.26.75-.03.09-.06.18-.09.28-.06.2-.12.4-.17.6-.07.23-.13.47-.18.72-.06.24-.11.48-.15.72-.05.26-.1.52-.14.78-.03.23-.06.46-.09.7-.05.41-.08.83-.1 1.25-.02.34-.03.68-.03 1.02 0 10.95 8.9 19.86 19.85 19.86 2.18 0 4.27-.35 6.23-1h.01c1.16-.39 2.29-.88 3.35-1.47 1.05-.58 2.03-1.25 2.95-2 4.46-3.64 7.32-9.19 7.32-15.39 0-.26 0-.51-.02-.77zm-14.41 15.4c-1.69.64-3.52.98-5.43.98-8.61 0-15.61-7-15.61-15.61 0-8.15 6.27-14.85 14.24-15.55.45-.04.91-.06 1.37-.06 4.48 0 8.53 1.9 11.39 4.94 2.35 2.49 3.88 5.77 4.17 9.39.04.42.06.85.06 1.28 0 6.7-4.24 12.43-10.19 14.63z" fill="#9ad0ec" style="fill: rgb(74, 20, 140);"></path><path d="m28.25 36.1c0 .55.44 1 1 1s1-.45 1-1c0-2.39-2.23-4.38-5.11-4.68v-.77c0-.55-.45-1-1-1s-1 .45-1 1v.82c-2.67.45-4.69 2.35-4.69 4.63s2 4.19 4.69 4.64v5.5c-1.75-.26-3.1-1.38-3.1-2.67 0-.55-.45-1-1-1s-1 .45-1 1c0 2.39 2.22 4.37 5.1 4.68v.8c0 .55.45 1 1 1s1-.45 1-1v-.85c2.68-.45 4.69-2.35 4.69-4.63s-1.97-4.19-4.69-4.63v-5.51c1.75.26 3.11 1.38 3.11 2.67zm-5.11 2.59c-1.55-.36-2.69-1.41-2.69-2.59s1.15-2.22 2.69-2.59zm4.69 4.88c0 1.19-1.15 2.23-2.69 2.6v-5.2c1.56.36 2.69 1.41 2.69 2.6z" fill="#9ad0ec" style="fill: rgb(74, 20, 140);"></path><g fill="#1572a1"><path d="m39.7 38.56c-.29-3.62-1.82-6.9-4.17-9.39-2.86-3.04-6.91-4.94-11.39-4.94-8.61 0-15.61 7-15.61 15.61s7 15.61 15.61 15.61 15.62-7 15.62-15.61c0-.43-.02-.86-.06-1.28zm-10.45-1.46c-.56 0-1-.45-1-1 0-1.29-1.36-2.41-3.11-2.67v5.51c2.72.44 4.69 2.34 4.69 4.63s-2.01 4.18-4.69 4.63v.85c0 .55-.45 1-1 1s-1-.45-1-1v-.8c-2.88-.31-5.1-2.29-5.1-4.68 0-.55.45-1 1-1s1 .45 1 1c0 1.29 1.35 2.41 3.1 2.67v-5.5c-2.69-.45-4.69-2.37-4.69-4.64s2.02-4.18 4.69-4.63v-.82c0-.55.45-1 1-1s1 .45 1 1v.77c2.88.3 5.11 2.29 5.11 4.68 0 .55-.45 1-1 1z" fill="#1572a1" style="fill: rgb(0, 123, 255);"></path><path d="m27.83 43.57c0 1.19-1.15 2.23-2.69 2.6v-5.2c1.56.36 2.69 1.41 2.69 2.6z" fill="#1572a1" style="fill: rgb(0, 123, 255);"></path><path d="m23.14 33.51v5.18c-1.55-.36-2.69-1.41-2.69-2.59s1.15-2.22 2.69-2.59z" fill="#1572a1" style="fill: rgb(0, 123, 255);"></path></g><path d="m59.85 16.84c-.43 1.33-1.64 2.19-3.08 2.19h-2.6v31.1c0 3.12-2.11 5.78-5.04 6.72-.75.25-1.55.38-2.38.38h-13.02c1.05-.58 2.03-1.25 2.95-2 4.46-3.64 7.32-9.19 7.32-15.39 0-.26 0-.51-.02-.77-.2-5.22-2.42-9.93-5.91-13.36-.78-.77-1.62-1.48-2.52-2.11-.3-.21-.61-.42-.92-.61-.64-.41-1.31-.78-2-1.1v-2.86h-2.61c-1.43 0-2.64-.86-3.07-2.19-.32-.97-.13-1.98.47-2.76.18-.25.41-.47.67-.66l9.16-6.63 2.77-2c.14-.1.28-.19.42-.27.06-.04.12-.08.19-.11.16-.09.32-.16.49-.23.63-.27 1.31-.42 2-.45-.01.01-.02.01-.03.02 1.29-.08 2.61.26 3.69 1.04l8.36 6.05 3.57 2.58c1.1.81 1.55 2.15 1.14 3.42z" fill="#1572a1" style="fill: rgb(0, 123, 255);"></path><path d="m43.12 3.73s-.02.01-.03.02c-.02.01-.05.03-.07.04l-11.93 8.63c-.81.6-1.28 1.48-1.3 2.41 0 .33.05.67.16 1.01.43 1.33 1.64 2.19 3.07 2.19h2.61v2.86l-.08 2.71c-.3-.21-.61-.42-.92-.61-.64-.41-1.31-.78-2-1.1v-2.86h-2.61c-1.43 0-2.64-.86-3.07-2.19-.32-.97-.13-1.98.47-2.76.18-.25.41-.47.67-.66l11.93-8.63c.14-.1.28-.19.42-.27.06-.04.12-.08.19-.11.16-.09.32-.16.49-.23.63-.27 1.31-.42 2-.45z" fill="#0b6284" style="fill: rgb(233, 30, 99);"></path><path d="m26.14 58.7c-10.95 0-19.85-8.91-19.85-19.86 0-7.41 4.09-13.88 10.12-17.29-7.12 3.02-12.12 10.08-12.12 18.29 0 10.95 8.9 19.86 19.85 19.86 3.48 0 6.75-.9 9.59-2.47.08-.05.16-.1.24-.15-2.4 1.03-5.05 1.62-7.83 1.62z" fill="#69acc9" style="fill: rgb(0, 123, 136);"></path></g><g fill="#fff" opacity=".19"><path d="m59.85 16.84c-.43 1.33-1.64 2.19-3.08 2.19h-2.6v31.1c0 3.12-2.11 5.78-5.04 6.72.52-2.86 2.72-6.91 1.71-12.87-.23-1.36-.42-1.35-1.01-3.42-1.42-4.95-3.92-13.71-.62-20.95 1.09-2.39 2.01-2.84 2.02-4.68.03-3.41-3.09-6.7-6.43-8.02-3.32-1.32-6.39-.5-7.56-.12l2.77-2c.14-.1.28-.19.42-.27.06-.04.12-.08.19-.11.16-.09.32-.16.49-.23.63-.27 1.31-.42 2-.45-.01.01-.02.01-.03.02 1.29-.08 2.61.26 3.69 1.04l8.36 6.05 3.57 2.58c1.1.81 1.55 2.15 1.14 3.42z" fill="#fff"></path><path d="m44 39.84c0 6.2-2.86 11.75-7.32 15.39-.92.75-1.9 1.42-2.95 2-1.06.59-2.19 1.08-3.35 1.47h-.01c-.08-.07-.16-.14-.23-.22 0 0-.11-.11-.21-.22-.09-.11-1.44-2.12-.82-5.2.67-3.38 2.87-3.88 4.15-6.7 1.6-3.54.45-7.86-.89-10.34-3.17-5.83-9.66-5.51-10.91-10.4-.56-2.18.21-4.26.85-5.55.61-.06 1.22-.09 1.84-.09 3.04 0 5.92.69 8.49 1.91.69.32 1.36.69 2 1.1.31.19.62.4.92.61.9.63 1.74 1.34 2.52 2.11 3.49 3.43 5.71 8.14 5.91 13.36.02.26.02.51.02.77z" fill="#fff"></path></g></svg>