<svg width="392" height="48" viewBox="0 0 392 48" fill="none" xmlns="http://www.w3.org/2000/svg">
<g clip-path="url(#clip0_1633_18619)">
<path fill-rule="evenodd" clip-rule="evenodd" d="M23.7307 21.8451C23.8583 22.5545 23.9223 23.2739 23.9219 23.9948L23.9145 23.999C23.9147 29.6039 20.0485 34.4623 14.6017 35.7018C9.15496 36.9412 3.57878 34.2314 1.17002 29.1746C-1.23874 24.1178 0.161665 18.0611 4.54326 14.5856C8.92485 11.11 15.1203 11.1414 19.4666 14.6613L17.1429 16.3818C13.6476 13.9859 8.97481 14.2905 5.81778 17.1201C2.66076 19.9496 1.83307 24.5749 3.81177 28.3301C5.79048 32.0852 10.0656 34.0025 14.1732 32.9768C18.2808 31.9512 21.1621 28.2469 21.1566 23.999V23.7531L23.7307 21.8451ZM22.8593 19.0456L11.964 27.1017L7.41153 24.2386V20.7925L11.964 23.6545L21.427 16.6584C21.9955 17.3955 22.4762 18.1966 22.8593 19.0456ZM34.2152 20.8338C34.2152 19.2682 36.1355 19.0996 36.9615 19.0996C38.1054 19.0996 38.7571 19.2576 39.6084 19.6455L41.909 17.9495C40.6721 17.145 38.8036 16.5249 36.9889 16.5249C32.6583 16.5249 31.1182 18.8336 31.1182 20.996C31.1182 24.1083 33.8132 24.7566 36.1924 25.3288L36.1946 25.3294C37.8667 25.7311 39.3106 26.0788 39.3106 27.2639C39.3106 27.8734 38.9483 28.8942 36.5252 28.8942C34.9165 28.8942 33.1547 28.3271 31.903 27.4102L30.8468 29.8249C32.1217 30.8224 34.3324 31.4648 36.5009 31.4648C40.0922 31.4648 42.416 29.7178 42.416 27.0127C42.416 23.9386 39.7151 23.2952 37.3333 22.7313C35.6644 22.3369 34.2226 21.9892 34.2226 20.8232L34.2152 20.8338ZM52.2836 28.8052C54.0756 28.8052 54.947 28.1946 54.9485 26.9597C54.947 25.7279 54.0502 25.1142 52.2836 25.1142H48.4124V28.8052H52.2836ZM54.244 20.9441C54.244 22.1101 53.3715 22.7101 51.7206 22.7101H48.4124V19.1781H51.7206C53.8056 19.1781 54.244 20.1438 54.244 20.9441ZM55.559 23.7658C57.1719 24.299 58.0941 25.5891 58.0941 27.3042V27.3063C58.0941 29.827 56.1167 31.2167 52.5255 31.2167H45.307V16.7718H52.1177C55.4154 16.7718 57.3843 18.1615 57.3843 20.4936C57.3843 21.879 56.7315 22.9963 55.5474 23.6418L55.409 23.7171L55.559 23.7658ZM60.985 31.2156H71.8645V28.8115H64.0904V25.1142H70.7227V22.709H64.0904V19.1781H68.6144L71.8656 16.774H60.9861L60.985 31.2156ZM80.6146 24.7199C82.6035 24.7199 83.6999 23.7362 83.6999 21.949C83.6999 20.1628 82.6035 19.1781 80.6146 19.1781H77.862V24.7199H80.6146ZM86.8095 21.9426C86.8095 18.7551 84.4615 16.774 80.6832 16.774H74.7566V31.2156H77.862V27.125H80.6811H80.9441L83.7031 31.2199H87.0303L83.8731 26.524C85.7385 25.7078 86.8138 24.0987 86.8138 21.9426H86.8095ZM133.832 26.439V29.591L133.827 29.5868C133.614 29.8378 133.364 30.0552 133.086 30.2316C132.729 30.4621 132.349 30.6545 131.952 30.8055C131.477 30.9883 130.988 31.13 130.489 31.229C129.92 31.3411 129.341 31.3961 128.761 31.3931C127.676 31.4078 126.597 31.2344 125.571 30.8806C124.663 30.5659 123.831 30.065 123.127 29.41C122.44 28.7568 121.903 27.962 121.552 27.0806C121.177 26.1665 120.99 25.1292 120.99 23.9688C120.979 22.954 121.166 21.9468 121.542 21.0041C121.897 20.1253 122.434 19.3315 123.117 18.6748C123.825 18.0029 124.664 17.4836 125.581 17.149C126.613 16.7755 127.704 16.5919 128.802 16.6069C129.933 16.6091 130.901 16.7502 131.705 17.0305C132.51 17.3107 133.123 17.6008 133.546 17.9008V21.4637C133.047 20.7603 132.402 20.1737 131.654 19.7442C131.235 19.502 130.789 19.3101 130.325 19.1724C129.83 19.0289 129.317 18.9576 128.802 18.9606C128.083 18.9505 127.368 19.0759 126.695 19.3302C126.098 19.5558 125.555 19.9043 125.101 20.353C124.655 20.8033 124.313 21.3453 124.098 21.9412C123.645 23.2386 123.634 24.6498 124.067 25.954C124.471 27.1666 125.388 28.1397 126.573 28.6148C127.261 28.8952 127.997 29.0391 128.74 29.0383C129.322 29.044 129.903 28.9753 130.468 28.834C130.966 28.7079 131.446 28.5224 131.9 28.2813C132.313 28.0606 132.695 27.7849 133.035 27.4618C133.35 27.1631 133.619 26.8182 133.832 26.439ZM101.603 19.1904H106.429V16.8356H94.303V19.1904H99.0473V31.1676H101.603V19.1904ZM108.985 31.1676H119.108V28.8128H111.541V24.9641H118.127V22.6093H111.541V19.1904H118.883V16.8356H108.985V31.1676ZM149.818 31.1633V16.8356H147.262V22.6093H139.43V16.8356H136.874V31.1676H139.43V24.9641H147.262V31.1676L149.818 31.1633Z" fill="white" fill-opacity="0.9"/>
</g>
<path d="M33.5039 17H36.1639V22.82H37.2639L41.6439 17H44.8439L39.4839 23.68L45.4239 31H42.1839L37.3239 24.94H36.1639V31H33.5039V17ZM45.8912 24C45.8912 21.5067 46.4512 19.68 47.5712 18.52C48.7046 17.3467 50.4313 16.76 52.7513 16.76C53.9246 16.76 54.9246 16.9067 55.7512 17.2C56.5913 17.48 57.2779 17.92 57.8113 18.52C58.3446 19.1067 58.7379 19.8533 58.9913 20.76C59.2446 21.6667 59.3713 22.7467 59.3713 24C59.3713 25.3067 59.2179 26.42 58.9113 27.34C58.6179 28.26 58.1846 29.0133 57.6113 29.6C57.0513 30.1733 56.3513 30.5933 55.5113 30.86C54.6846 31.1133 53.7313 31.24 52.6513 31.24C51.6113 31.24 50.6713 31.1067 49.8313 30.84C48.9912 30.5733 48.2779 30.1533 47.6912 29.58C47.1179 28.9933 46.6712 28.24 46.3512 27.32C46.0446 26.4 45.8912 25.2933 45.8912 24ZM48.7113 24.04C48.7113 24.9867 48.8046 25.7733 48.9913 26.4C49.1779 27.0133 49.4446 27.5133 49.7913 27.9C50.1512 28.2733 50.5779 28.54 51.0712 28.7C51.5646 28.8467 52.1179 28.92 52.7312 28.92C53.3446 28.92 53.8846 28.84 54.3513 28.68C54.8313 28.52 55.2313 28.2533 55.5512 27.88C55.8846 27.4933 56.1379 26.9933 56.3113 26.38C56.4846 25.7533 56.5712 24.9733 56.5712 24.04C56.5712 23.0933 56.4846 22.3 56.3113 21.66C56.1379 21.02 55.8846 20.5133 55.5512 20.14C55.2179 19.7533 54.8046 19.48 54.3113 19.32C53.8179 19.16 53.2513 19.08 52.6113 19.08C51.2779 19.08 50.2912 19.4733 49.6512 20.26C49.0246 21.0333 48.7113 22.2933 48.7113 24.04ZM62.7516 17H65.4116V22.68H72.0516V17H74.7116V31H72.0516V25H65.4116V31H62.7516V17ZM88.6691 20.18C88.2824 19.94 87.7757 19.7133 87.1491 19.5C86.5357 19.2733 85.7891 19.16 84.9091 19.16C84.2291 19.16 83.6357 19.2467 83.1291 19.42C82.6357 19.58 82.2157 19.8467 81.8691 20.22C81.5357 20.58 81.2824 21.06 81.1091 21.66C80.9491 22.26 80.8691 23 80.8691 23.88C80.8691 24.8267 80.9557 25.62 81.1291 26.26C81.3157 26.8867 81.5824 27.3933 81.9291 27.78C82.2891 28.1533 82.7291 28.42 83.2491 28.58C83.7824 28.74 84.3891 28.82 85.0691 28.82C85.5091 28.82 85.9224 28.7867 86.3091 28.72C86.7091 28.64 87.0757 28.5467 87.4091 28.44C87.7424 28.3333 88.0357 28.22 88.2891 28.1C88.5424 27.98 88.7491 27.8667 88.9091 27.76V30.4C88.5624 30.5867 88.0424 30.7733 87.3491 30.96C86.6691 31.1333 85.8557 31.22 84.9091 31.22C83.7091 31.22 82.6757 31.08 81.8091 30.8C80.9557 30.52 80.2491 30.0933 79.6891 29.52C79.1291 28.9333 78.7157 28.1867 78.4491 27.28C78.1824 26.3733 78.0491 25.3 78.0491 24.06C78.0491 21.54 78.6024 19.7 79.7091 18.54C80.8157 17.3667 82.5424 16.78 84.8891 16.78C85.8091 16.78 86.5824 16.86 87.2091 17.02C87.8357 17.1667 88.3224 17.2933 88.6691 17.4V20.18ZM95.0122 19.32H90.8322V17H101.872V19.32H97.6722V31H95.0122V19.32ZM104.621 17.08C105.301 17.0267 105.961 16.98 106.601 16.94C107.241 16.9 108.001 16.88 108.881 16.88C109.974 16.88 110.901 16.9733 111.661 17.16C112.421 17.3333 113.034 17.6133 113.501 18C113.981 18.3867 114.328 18.88 114.541 19.48C114.754 20.08 114.861 20.8 114.861 21.64C114.861 23.44 114.388 24.7667 113.441 25.62C112.494 26.46 110.968 26.88 108.861 26.88C108.594 26.88 108.328 26.8733 108.061 26.86C107.808 26.8467 107.548 26.8267 107.281 26.8V31H104.621V17.08ZM107.281 24.56C107.561 24.5867 107.821 24.6067 108.061 24.62C108.301 24.6333 108.568 24.64 108.861 24.64C109.461 24.64 109.968 24.5867 110.381 24.48C110.808 24.3733 111.148 24.2067 111.401 23.98C111.654 23.7533 111.834 23.4667 111.941 23.12C112.061 22.76 112.121 22.3267 112.121 21.82C112.121 21.34 112.068 20.9333 111.961 20.6C111.854 20.2533 111.674 19.9733 111.421 19.76C111.181 19.5467 110.854 19.3933 110.441 19.3C110.028 19.1933 109.514 19.14 108.901 19.14C108.608 19.14 108.328 19.1467 108.061 19.16C107.808 19.16 107.548 19.1733 107.281 19.2V24.56ZM119.047 28.26C119.194 28.3667 119.374 28.4667 119.587 28.56C119.814 28.64 120.054 28.68 120.307 28.68C120.574 28.68 120.84 28.62 121.107 28.5C121.374 28.3667 121.594 28.0933 121.767 27.68L116.227 17H119.347L123.227 24.86L126.407 17H129.187L124.447 28.06C124.18 28.6733 123.914 29.18 123.647 29.58C123.394 29.98 123.12 30.3 122.827 30.54C122.534 30.78 122.214 30.9467 121.867 31.04C121.52 31.1333 121.134 31.18 120.707 31.18C120.107 31.18 119.554 31.0733 119.047 30.86V28.26ZM131.603 17H134.263V22.82H135.363L139.743 17H142.943L137.583 23.68L143.523 31H140.283L135.423 24.94H134.263V31H131.603V17ZM148.683 19.32H144.503V17H155.543V19.32H151.343V31H148.683V19.32ZM156.964 24C156.964 21.5067 157.524 19.68 158.644 18.52C159.777 17.3467 161.504 16.76 163.824 16.76C164.997 16.76 165.997 16.9067 166.824 17.2C167.664 17.48 168.351 17.92 168.884 18.52C169.417 19.1067 169.811 19.8533 170.064 20.76C170.317 21.6667 170.444 22.7467 170.444 24C170.444 25.3067 170.291 26.42 169.984 27.34C169.691 28.26 169.257 29.0133 168.684 29.6C168.124 30.1733 167.424 30.5933 166.584 30.86C165.757 31.1133 164.804 31.24 163.724 31.24C162.684 31.24 161.744 31.1067 160.904 30.84C160.064 30.5733 159.351 30.1533 158.764 29.58C158.191 28.9933 157.744 28.24 157.424 27.32C157.117 26.4 156.964 25.2933 156.964 24ZM159.784 24.04C159.784 24.9867 159.877 25.7733 160.064 26.4C160.251 27.0133 160.517 27.5133 160.864 27.9C161.224 28.2733 161.651 28.54 162.144 28.7C162.637 28.8467 163.191 28.92 163.804 28.92C164.417 28.92 164.957 28.84 165.424 28.68C165.904 28.52 166.304 28.2533 166.624 27.88C166.957 27.4933 167.211 26.9933 167.384 26.38C167.557 25.7533 167.644 24.9733 167.644 24.04C167.644 23.0933 167.557 22.3 167.384 21.66C167.211 21.02 166.957 20.5133 166.624 20.14C166.291 19.7533 165.877 19.48 165.384 19.32C164.891 19.16 164.324 19.08 163.684 19.08C162.351 19.08 161.364 19.4733 160.724 20.26C160.097 21.0333 159.784 22.2933 159.784 24.04ZM173.824 17.08C174.504 17.0267 175.164 16.98 175.804 16.94C176.444 16.9 177.204 16.88 178.084 16.88C179.178 16.88 180.104 16.9733 180.864 17.16C181.624 17.3333 182.238 17.6133 182.704 18C183.184 18.3867 183.531 18.88 183.744 19.48C183.958 20.08 184.064 20.8 184.064 21.64C184.064 23.44 183.591 24.7667 182.644 25.62C181.698 26.46 180.171 26.88 178.064 26.88C177.798 26.88 177.531 26.8733 177.264 26.86C177.011 26.8467 176.751 26.8267 176.484 26.8V31H173.824V17.08ZM176.484 24.56C176.764 24.5867 177.024 24.6067 177.264 24.62C177.504 24.6333 177.771 24.64 178.064 24.64C178.664 24.64 179.171 24.5867 179.584 24.48C180.011 24.3733 180.351 24.2067 180.604 23.98C180.858 23.7533 181.038 23.4667 181.144 23.12C181.264 22.76 181.324 22.3267 181.324 21.82C181.324 21.34 181.271 20.9333 181.164 20.6C181.058 20.2533 180.878 19.9733 180.624 19.76C180.384 19.5467 180.058 19.3933 179.644 19.3C179.231 19.1933 178.718 19.14 178.104 19.14C177.811 19.14 177.531 19.1467 177.264 19.16C177.011 19.16 176.751 19.1733 176.484 19.2V24.56ZM194.153 28.26C194.3 28.3667 194.48 28.4667 194.693 28.56C194.92 28.64 195.16 28.68 195.413 28.68C195.68 28.68 195.947 28.62 196.213 28.5C196.48 28.3667 196.7 28.0933 196.873 27.68L191.333 17H194.453L198.333 24.86L201.513 17H204.293L199.553 28.06C199.287 28.6733 199.02 29.18 198.753 29.58C198.5 29.98 198.227 30.3 197.933 30.54C197.64 30.78 197.32 30.9467 196.973 31.04C196.627 31.1333 196.24 31.18 195.813 31.18C195.213 31.18 194.66 31.0733 194.153 30.86V28.26ZM214.284 25.62C213.951 25.8067 213.498 25.9733 212.924 26.12C212.364 26.2533 211.684 26.32 210.884 26.32C209.338 26.32 208.198 26.0067 207.464 25.38C206.731 24.7533 206.364 23.8067 206.364 22.54V17H209.024V21.72C209.024 22.5867 209.244 23.1867 209.684 23.52C210.124 23.84 210.731 24 211.504 24C212.678 24 213.604 23.8 214.284 23.4V17H216.944V31H214.284V25.62ZM221.128 17H230.368V19.32H223.788V22.8H229.688V25.02H223.788V28.68H230.368V31H221.128V17ZM222.048 14.2C222.048 13.7333 222.168 13.38 222.408 13.14C222.648 12.8867 223.035 12.76 223.568 12.76C224.101 12.76 224.488 12.8867 224.728 13.14C224.968 13.38 225.088 13.7333 225.088 14.2C225.088 14.6667 224.968 15.0267 224.728 15.28C224.488 15.52 224.101 15.64 223.568 15.64C223.035 15.64 222.648 15.52 222.408 15.28C222.168 15.0267 222.048 14.6667 222.048 14.2ZM226.408 14.2C226.408 13.7333 226.528 13.38 226.768 13.14C227.008 12.8867 227.395 12.76 227.928 12.76C228.461 12.76 228.848 12.8867 229.088 13.14C229.328 13.38 229.448 13.7333 229.448 14.2C229.448 14.6667 229.328 15.0267 229.088 15.28C228.848 15.52 228.461 15.64 227.928 15.64C227.395 15.64 227.008 15.52 226.768 15.28C226.528 15.0267 226.408 14.6667 226.408 14.2ZM236.587 19.32H232.407V17H243.447V19.32H239.247V31H236.587V19.32ZM252.39 27.72H246.91L245.77 31H243.11L248.21 17H251.23L256.35 31H253.55L252.39 27.72ZM247.69 25.48H251.61L249.65 19.9L247.69 25.48ZM274.403 20.18C274.017 19.94 273.51 19.7133 272.883 19.5C272.27 19.2733 271.523 19.16 270.643 19.16C269.963 19.16 269.37 19.2467 268.863 19.42C268.37 19.58 267.95 19.8467 267.603 20.22C267.27 20.58 267.017 21.06 266.843 21.66C266.683 22.26 266.603 23 266.603 23.88C266.603 24.8267 266.69 25.62 266.863 26.26C267.05 26.8867 267.317 27.3933 267.663 27.78C268.023 28.1533 268.463 28.42 268.983 28.58C269.517 28.74 270.123 28.82 270.803 28.82C271.243 28.82 271.657 28.7867 272.043 28.72C272.443 28.64 272.81 28.5467 273.143 28.44C273.477 28.3333 273.77 28.22 274.023 28.1C274.277 27.98 274.483 27.8667 274.643 27.76V30.4C274.297 30.5867 273.777 30.7733 273.083 30.96C272.403 31.1333 271.59 31.22 270.643 31.22C269.443 31.22 268.41 31.08 267.543 30.8C266.69 30.52 265.983 30.0933 265.423 29.52C264.863 28.9333 264.45 28.1867 264.183 27.28C263.917 26.3733 263.783 25.3 263.783 24.06C263.783 21.54 264.337 19.7 265.443 18.54C266.55 17.3667 268.277 16.78 270.623 16.78C271.543 16.78 272.317 16.86 272.943 17.02C273.57 17.1667 274.057 17.2933 274.403 17.4V20.18ZM279.245 28.26C279.391 28.3667 279.571 28.4667 279.785 28.56C280.011 28.64 280.251 28.68 280.505 28.68C280.771 28.68 281.038 28.62 281.305 28.5C281.571 28.3667 281.791 28.0933 281.965 27.68L276.425 17H279.545L283.425 24.86L286.605 17H289.385L284.645 28.06C284.378 28.6733 284.111 29.18 283.845 29.58C283.591 29.98 283.318 30.3 283.025 30.54C282.731 30.78 282.411 30.9467 282.065 31.04C281.718 31.1333 281.331 31.18 280.905 31.18C280.305 31.18 279.751 31.0733 279.245 30.86V28.26ZM291.801 17H301.041V19.32H294.461V22.4C294.941 22.36 295.367 22.3333 295.741 22.32C296.127 22.3067 296.494 22.3 296.841 22.3C297.694 22.3 298.441 22.3667 299.081 22.5C299.734 22.6333 300.267 22.86 300.681 23.18C301.107 23.4867 301.427 23.9067 301.641 24.44C301.854 24.9733 301.961 25.64 301.961 26.44C301.961 27.2 301.854 27.8733 301.641 28.46C301.427 29.0333 301.081 29.52 300.601 29.92C300.134 30.32 299.514 30.6267 298.741 30.84C297.981 31.04 297.047 31.14 295.941 31.14C295.261 31.14 294.574 31.1267 293.881 31.1C293.201 31.0867 292.507 31.0467 291.801 30.98V17ZM294.421 28.7C294.701 28.7267 294.967 28.7467 295.221 28.76C295.487 28.7733 295.787 28.78 296.121 28.78C296.721 28.78 297.214 28.7333 297.601 28.64C298.001 28.5467 298.314 28.4067 298.541 28.22C298.781 28.02 298.947 27.7733 299.041 27.48C299.147 27.1733 299.201 26.8133 299.201 26.4C299.201 26.0133 299.154 25.6867 299.061 25.42C298.981 25.1533 298.834 24.94 298.621 24.78C298.407 24.62 298.114 24.5067 297.741 24.44C297.381 24.36 296.921 24.32 296.361 24.32C296.041 24.32 295.727 24.3333 295.421 24.36C295.114 24.3733 294.781 24.4 294.421 24.44V28.7ZM315.16 20.18C314.773 19.94 314.266 19.7133 313.64 19.5C313.026 19.2733 312.28 19.16 311.4 19.16C310.72 19.16 310.126 19.2467 309.62 19.42C309.126 19.58 308.706 19.8467 308.36 20.22C308.026 20.58 307.773 21.06 307.6 21.66C307.44 22.26 307.36 23 307.36 23.88C307.36 24.8267 307.446 25.62 307.62 26.26C307.806 26.8867 308.073 27.3933 308.42 27.78C308.78 28.1533 309.22 28.42 309.74 28.58C310.273 28.74 310.88 28.82 311.56 28.82C312 28.82 312.413 28.7867 312.8 28.72C313.2 28.64 313.566 28.5467 313.9 28.44C314.233 28.3333 314.526 28.22 314.78 28.1C315.033 27.98 315.24 27.8667 315.4 27.76V30.4C315.053 30.5867 314.533 30.7733 313.84 30.96C313.16 31.1333 312.346 31.22 311.4 31.22C310.2 31.22 309.166 31.08 308.3 30.8C307.446 30.52 306.74 30.0933 306.18 29.52C305.62 28.9333 305.206 28.1867 304.94 27.28C304.673 26.3733 304.54 25.3 304.54 24.06C304.54 21.54 305.093 19.7 306.2 18.54C307.306 17.3667 309.033 16.78 311.38 16.78C312.3 16.78 313.073 16.86 313.7 17.02C314.326 17.1667 314.813 17.2933 315.16 17.4V20.18ZM318.724 17H321.384V24.82C321.384 25.2467 321.371 25.7 321.344 26.18C321.318 26.66 321.284 27.14 321.244 27.62C321.658 26.78 322.104 25.9733 322.584 25.2L327.864 17H330.624V31H327.964V23.24C327.964 22.8133 327.978 22.3467 328.004 21.84C328.031 21.3333 328.064 20.8267 328.104 20.32C327.878 20.7467 327.658 21.1667 327.444 21.58C327.231 21.9933 327.018 22.3733 326.804 22.72L321.504 31H318.724V17ZM333.103 28.68H334.543C334.756 28.2267 334.956 27.6733 335.143 27.02C335.329 26.3667 335.489 25.64 335.623 24.84C335.769 24.04 335.883 23.1867 335.963 22.28C336.043 21.36 336.096 20.4133 336.123 19.44L336.163 17H345.363V28.68H347.143V33.6H344.743V31H335.503V33.6H333.103V28.68ZM342.703 19.32H338.603L338.583 20.38C338.556 21.1667 338.503 21.9467 338.423 22.72C338.356 23.4933 338.263 24.24 338.143 24.96C338.023 25.6667 337.883 26.34 337.723 26.98C337.563 27.6067 337.389 28.1733 337.203 28.68H342.703V19.32ZM350.003 17H352.663V24.82C352.663 25.2467 352.65 25.7 352.623 26.18C352.596 26.66 352.563 27.14 352.523 27.62C352.936 26.78 353.383 25.9733 353.863 25.2L359.143 17H361.903V31H359.243V23.24C359.243 22.8133 359.256 22.3467 359.283 21.84C359.31 21.3333 359.343 20.8267 359.383 20.32C359.156 20.7467 358.936 21.1667 358.723 21.58C358.51 21.9933 358.296 22.3733 358.083 22.72L352.783 31H350.003V17ZM366.102 17H368.762V24.82C368.762 25.2467 368.748 25.7 368.722 26.18C368.695 26.66 368.662 27.14 368.622 27.62C369.035 26.78 369.482 25.9733 369.962 25.2L375.242 17H378.002V31H375.342V23.24C375.342 22.8133 375.355 22.3467 375.382 21.84C375.408 21.3333 375.442 20.8267 375.482 20.32C375.255 20.7467 375.035 21.1667 374.822 21.58C374.608 21.9933 374.395 22.3733 374.182 22.72L368.882 31H366.102V17ZM370.522 12.6C370.522 13.1867 370.648 13.5933 370.902 13.82C371.155 14.0467 371.535 14.16 372.042 14.16C372.602 14.16 373.008 14.0467 373.262 13.82C373.515 13.5933 373.642 13.1867 373.642 12.6H375.642C375.642 13.16 375.555 13.6467 375.382 14.06C375.208 14.46 374.962 14.7933 374.642 15.06C374.322 15.3133 373.942 15.5 373.502 15.62C373.062 15.74 372.575 15.8 372.042 15.8C371.522 15.8 371.042 15.74 370.602 15.62C370.162 15.5 369.782 15.3133 369.462 15.06C369.142 14.7933 368.888 14.46 368.702 14.06C368.528 13.6467 368.442 13.16 368.442 12.6H370.522Z" fill="white"/>
<defs>
<clipPath id="clip0_1633_18619">
<rect width="31" height="24" fill="white" transform="translate(0 12)"/>
</clipPath>
</defs>
</svg>
